<?xml version="1.0" encoding="utf-8"?>
<!-- Generator: Adobe Illustrator 24.2.1, SVG Export Plug-In . SVG Version: 6.00 Build 0)  -->
<svg version="1.1" xmlns="http://www.w3.org/2000/svg" xmlns:xlink="http://www.w3.org/1999/xlink" x="0px" y="0px"
	 viewBox="0 0 720 1280" style="enable-background:new 0 0 720 1280;" xml:space="preserve">
<style type="text/css">
	.st0{fill:url(#SVGID_1_);}
	.st1{fill:url(#SVGID_2_);}
	.st2{fill:#01C1EC;}
	.st3{fill:#00EEFE;}
	.st4{fill:#0192D9;}
	.st5{fill:#0252C0;}
	.st6{fill:#026DCB;}
	.st7{fill:#035ECE;}
	.st8{fill:#202A88;}
	.st9{fill:#0E4BB4;}
	.st10{fill:#1145AD;}
</style>
<g id="Layer_1">
</g>
<g id="Layer_2">
	<linearGradient id="SVGID_1_" gradientUnits="userSpaceOnUse" x1="360" y1="-40.9096" x2="360" y2="1230.8984">
		<stop  offset="0" style="stop-color:#99007A"/>
		<stop  offset="0.2429" style="stop-color:#64006F"/>
		<stop  offset="0.3815" style="stop-color:#4B006A"/>
		<stop  offset="0.5322" style="stop-color:#450069"/>
		<stop  offset="0.73" style="stop-color:#350066"/>
		<stop  offset="0.9534" style="stop-color:#1A0060"/>
		<stop  offset="1" style="stop-color:#13005F"/>
	</linearGradient>
	<path class="st0" d="M720,1078.1H0l0-603.3c0-187.8,152.2-340,340-340h40c187.8,0,340,152.2,340,340V1078.1z"/>
	<linearGradient id="SVGID_2_" gradientUnits="userSpaceOnUse" x1="360" y1="735.7198" x2="360" y2="268.2822">
		<stop  offset="0" style="stop-color:#FCB087"/>
		<stop  offset="9.086102e-02" style="stop-color:#FB9288"/>
		<stop  offset="0.2397" style="stop-color:#F96689"/>
		<stop  offset="0.3907" style="stop-color:#F7438A"/>
		<stop  offset="0.5419" style="stop-color:#F6278B"/>
		<stop  offset="0.6935" style="stop-color:#F5138C"/>
		<stop  offset="0.8458" style="stop-color:#F4078C"/>
		<stop  offset="1" style="stop-color:#F4038C"/>
	</linearGradient>
	<path class="st1" d="M484.4,693.1H235.6v-93c0-66.3,53.7-120,120-120h8.8c66.3,0,120,53.7,120,120V693.1z"/>
	<rect x="173.7" y="922.9" class="st2" width="372.6" height="44.6"/>
	<rect x="110.9" y="996.6" class="st3" width="498.3" height="55.5"/>
	<rect x="202" y="863.8" class="st4" width="316.1" height="36.1"/>
	<rect x="249.1" y="761" class="st5" width="221.8" height="25.2"/>
	<rect x="229.8" y="804.8" class="st6" width="260.4" height="31.3"/>
	
		<rect x="276.9" y="724.3" transform="matrix(-1 -1.224647e-16 1.224647e-16 -1 720 1468.2853)" class="st7" width="166.1" height="19.6"/>
	
		<rect x="318.8" y="677.4" transform="matrix(-1 -1.224647e-16 1.224647e-16 -1 720 1368.7893)" class="st8" width="82.4" height="13.9"/>
	
		<rect x="295.2" y="699.5" transform="matrix(-1 -1.224647e-16 1.224647e-16 -1 720 1413.292)" class="st9" width="129.7" height="14.3"/>
	
		<rect x="332" y="662.7" transform="matrix(-1 -1.224647e-16 1.224647e-16 -1 720 1333.694)" class="st10" width="55.9" height="8.3"/>
	
		<rect x="340.4" y="653.3" transform="matrix(-1 -1.224647e-16 1.224647e-16 -1 720 1312.3868)" class="st10" width="39.2" height="5.7"/>
	
		<rect x="345.5" y="647.1" transform="matrix(-1 -1.224647e-16 1.224647e-16 -1 720 1297.8154)" class="st10" width="29" height="3.6"/>
	
		<rect x="347.9" y="642.7" transform="matrix(-1 -1.224647e-16 1.224647e-16 -1 720 1287.8154)" class="st10" width="24.1" height="2.4"/>
	
		<rect x="350.2" y="639.3" transform="matrix(-1 -1.224647e-16 1.224647e-16 -1 720 1280.619)" class="st10" width="19.6" height="2"/>
	
		<rect x="351.3" y="636.9" transform="matrix(-1 -1.224647e-16 1.224647e-16 -1 720 1275.2173)" class="st10" width="17.3" height="1.4"/>
	
		<rect x="353.4" y="634.7" transform="matrix(-1 -1.224647e-16 1.224647e-16 -1 720 1270.6458)" class="st10" width="13.2" height="1.2"/>
	
		<rect x="354.7" y="633.2" transform="matrix(-1 -1.224647e-16 1.224647e-16 -1 720 1267.1012)" class="st10" width="10.6" height="0.8"/>
	
		<rect x="355.4" y="632" transform="matrix(-1 -1.224647e-16 1.224647e-16 -1 720 1264.6279)" class="st10" width="9.2" height="0.7"/>
	
		<rect x="356.9" y="631.2" transform="matrix(-1 -1.224647e-16 1.224647e-16 -1 720 1262.8333)" class="st10" width="6.2" height="0.5"/>
	
		<rect x="357.8" y="630.5" transform="matrix(-1 -1.224647e-16 1.224647e-16 -1 720 1261.4048)" class="st10" width="4.3" height="0.4"/>
	
		<rect x="358.1" y="630" transform="matrix(-1 -1.224647e-16 1.224647e-16 -1 720 1260.3506)" class="st10" width="3.7" height="0.3"/>
	
		<rect x="358.6" y="629.7" transform="matrix(-1 -1.224647e-16 1.224647e-16 -1 720 1259.527)" class="st10" width="2.7" height="0.2"/>
	
		<rect x="358.9" y="629.4" transform="matrix(-1 -1.224647e-16 1.224647e-16 -1 720 1258.9381)" class="st10" width="2.1" height="0.1"/>
</g>
<g id="Layer_4">
</g>
<g id="Layer_3">
</g>
</svg>
